<svg xmlns="http://www.w3.org/2000/svg" xmlns:xlink="http://www.w3.org/1999/xlink" xmlns:inkscape="http://www.inkscape.org/namespaces/inkscape" version="1.1" width="173.38" height="47.3127" viewBox="0 0 173.38 47.3127">
<defs>
<clipPath id="clip_1">
<path transform="matrix(1,0,0,-1,0,47.3127)" d="M0 47.313H173.38V0H0Z"/>
</clipPath>
</defs>
<g inkscape:groupmode="layer" inkscape:label="Layer 1">
<g clip-path="url(#clip_1)">
<path transform="matrix(1,0,0,-1,40.7723,23.935898)" d="M0 0C-.613-1.645-1.655-3.095-3.016-4.2-4.135-5.19-5.696-5.505-7.11-5.026-7.768-4.84-8.344-4.436-8.744-3.88-8.716-3.829-8.685-3.78-8.651-3.733-8.651-3.733-2.713 7.621 .132 2.962 .19 2.866 .502 1.923 0 0M-9.019 .113C-9.511-.581-10.036-1.251-10.588-1.898-10.707-1.684-10.834-1.484-10.967-1.299-10.66-1.055-10.364-.753-10.083-.381-9.972-.232-9.869-.077-9.777 .084-9.09 1.182-9.113 2.541-9.755 3.6-9.307 3.67-8.853 3.71-8.397 3.713-7.435 3.751-6.403 3.756-5.508 3.617-5.654 3.524-5.801 3.431-5.934 3.338-7.147 2.458-8.192 1.365-9.019 .113M-9.755-6.33C-9.718-7.292-9.713-8.324-9.851-9.219-9.944-9.073-10.038-8.926-10.131-8.793-11.011-7.58-12.103-6.535-13.355-5.708-14.05-5.216-14.72-4.691-15.366-4.139-15.153-4.02-14.953-3.893-14.767-3.76-14.524-4.067-14.221-4.363-13.849-4.643-13.701-4.755-13.546-4.858-13.384-4.95-12.286-5.637-10.927-5.614-9.868-4.972-9.798-5.42-9.759-5.874-9.755-6.33M-10.506-14.859C-10.602-14.917-11.545-15.229-13.469-14.727-15.114-14.114-16.564-13.072-17.668-11.71-18.658-10.592-18.974-9.031-18.495-7.617-18.309-6.959-17.905-6.383-17.348-5.983-17.298-6.011-17.249-6.042-17.202-6.076-17.202-6.076-5.848-12.014-10.506-14.859M-19.798-4.972C-20.76-5.009-21.793-5.014-22.687-4.876-22.541-4.783-22.395-4.689-22.262-4.596-21.048-3.716-20.003-2.624-19.176-1.372-18.685-.677-18.16-.007-17.607 .639-17.488 .426-17.362 .226-17.229 .04-17.536-.203-17.832-.506-18.112-.878-18.224-1.026-18.327-1.181-18.418-1.343-19.105-2.441-19.082-3.8-18.441-4.859-18.889-4.929-19.342-4.968-19.798-4.972M-28.328-4.221C-28.386-4.125-28.698-3.182-28.196-1.258-27.582 .387-26.541 1.837-25.179 2.941-24.06 3.931-22.499 4.247-21.086 3.768-20.428 3.582-19.852 3.178-19.451 2.621-19.479 2.571-19.51 2.522-19.544 2.475-19.544 2.475-25.483-8.879-28.328-4.221M-18.44 5.071C-18.478 6.033-18.483 7.066-18.344 7.96-18.251 7.814-18.158 7.668-18.065 7.535-17.185 6.321-16.092 5.276-14.84 4.449-14.146 3.958-13.476 3.433-12.829 2.88-13.043 2.761-13.243 2.635-13.428 2.502-13.671 2.809-13.974 3.105-14.346 3.385-14.495 3.497-14.65 3.6-14.811 3.691-15.909 4.378-17.268 4.356-18.327 3.714-18.397 4.162-18.437 4.615-18.44 5.071M-17.689 13.601C-17.593 13.659-16.65 13.971-14.727 13.469-13.082 12.855-11.632 11.814-10.527 10.452-9.537 9.333-9.222 7.772-9.701 6.359-9.887 5.701-10.291 5.125-10.847 4.724-10.898 4.752-10.947 4.783-10.994 4.818-10.994 4.818-22.348 10.756-17.689 13.601M-12.17-1.572C-12.171-1.572-12.172-1.573-12.174-1.573-12.487-1.704-12.817-1.78-13.151-1.804-12.889-1.265-12.714-.706-12.655-.145-12.222-.413-11.831-.743-11.494-1.123-11.674-1.319-11.902-1.476-12.17-1.572M-13.557-2.522C-13.466-2.381-13.381-2.238-13.301-2.093-12.585-2.111-11.873-1.927-11.207-1.474-11.053-1.682-10.914-1.902-10.792-2.133-10.844-2.193-10.895-2.254-10.948-2.313-11.457-2.911-12.126-3.35-12.876-3.58-13.382-3.762-13.918-3.687-14.342-3.422-14.025-3.142-13.762-2.84-13.557-2.522M-15.04-2.557C-15.041-2.556-15.041-2.555-15.042-2.553-15.172-2.24-15.249-1.91-15.272-1.576-14.733-1.838-14.174-2.013-13.614-2.072-13.881-2.505-14.212-2.896-14.592-3.233-14.787-3.053-14.944-2.825-15.04-2.557M-16.026 .313C-16.024 .314-16.023 .314-16.021 .315-15.708 .446-15.378 .522-15.045 .545-15.306 .006-15.482-.553-15.541-1.113-15.974-.846-16.364-.515-16.701-.135-16.522 .06-16.294 .217-16.026 .313M-14.639 1.264C-14.73 1.123-14.815 .979-14.894 .834-15.611 .853-16.323 .668-16.989 .216-17.143 .423-17.281 .644-17.404 .875-17.352 .934-17.301 .995-17.248 1.055-16.739 1.652-16.07 2.092-15.32 2.321-14.813 2.504-14.277 2.428-13.853 2.164-14.17 1.884-14.434 1.582-14.639 1.264M-13.463-1.811C-13.72-1.803-13.977-1.764-14.227-1.693-14.596-1.588-14.948-1.443-15.28-1.264-15.272-1.007-15.233-.75-15.161-.5-15.056-.131-14.912 .221-14.733 .553-14.476 .545-14.219 .506-13.968 .434-13.6 .329-13.247 .185-12.916 .006-12.924-.251-12.962-.508-13.034-.758-13.139-1.127-13.284-1.48-13.463-1.811M-13.155 1.299C-13.155 1.297-13.154 1.296-13.153 1.294-13.023 .981-12.947 .651-12.923 .318-13.462 .579-14.021 .755-14.582 .814-14.314 1.247-13.984 1.637-13.604 1.975-13.408 1.795-13.251 1.567-13.155 1.299M-15.782-3.779C-16.379-3.27-16.819-2.601-17.048-1.851-17.231-1.345-17.155-.809-16.891-.385-16.611-.702-16.309-.965-15.991-1.17-15.85-1.261-15.706-1.346-15.561-1.426-15.58-2.142-15.395-2.854-14.943-3.52-15.15-3.674-15.371-3.813-15.601-3.935-15.661-3.883-15.722-3.832-15.782-3.779M-11.305-.874C-11.585-.557-11.886-.293-12.205-.088-12.346 .003-12.489 .088-12.634 .167-12.616 .884-12.8 1.596-13.253 2.262-13.045 2.416-12.825 2.554-12.594 2.677-12.534 2.625-12.473 2.574-12.414 2.521-11.816 2.012-11.377 1.343-11.147 .593-10.965 .086-11.04-.449-11.305-.874M.613 3.087C.613 3.087 .335 3.355 .213 3.453 .159 3.493 .107 3.547 .04 3.599 .09 3.612 .144 3.636 .2 3.663 .201 3.664 .202 3.664 .203 3.665 .247 3.686 .291 3.71 .337 3.738 .589 3.882 1.037 4.171 1.095 4.452 1.115 4.631 .991 4.697 .991 4.697 .783 4.787 .712 4.583 .712 4.583 .712 4.583 .65 4.396 .527 4.194 .502 4.147 .467 4.108 .437 4.064 .313 3.898 .149 3.749-.062 3.709-.157 3.711-.252 3.737-.333 3.799-.92 4.271-3.192 5.016-5.025 3.863-5.193 3.793-5.244 3.818-5.425 3.843-7.124 4.073-8.628 4.05-9.916 3.841-10.064 4.044-10.234 4.234-10.431 4.404-10.505 4.466-10.576 4.533-10.644 4.603L-10.661 4.618C-9.501 5.423-8.598 6.579-8.234 7.94-6.883 13-13.087 18.13-17.813 14.081-17.813 14.081-18.082 13.804-18.18 13.682-18.22 13.628-18.274 13.575-18.326 13.509-18.339 13.558-18.363 13.613-18.39 13.669-18.391 13.67-18.391 13.67-18.392 13.671-18.413 13.715-18.437 13.76-18.465 13.805-18.609 14.057-18.898 14.506-19.179 14.563-19.358 14.583-19.424 14.46-19.424 14.46-19.514 14.252-19.31 14.18-19.31 14.18-19.31 14.18-19.123 14.118-18.921 13.996-18.874 13.971-18.835 13.935-18.791 13.906-18.625 13.782-18.476 13.617-18.436 13.407-18.438 13.312-18.463 13.216-18.526 13.136-18.998 12.549-19.743 10.277-18.59 8.443-18.519 8.276-18.545 8.224-18.57 8.044-18.8 6.344-18.777 4.841-18.568 3.553-18.77 3.405-18.961 3.235-19.131 3.038-19.193 2.963-19.26 2.892-19.33 2.825L-19.345 2.808C-20.15 3.967-21.306 4.871-22.667 5.234-27.727 6.585-32.857 .381-28.808-4.345-28.808-4.345-28.531-4.613-28.408-4.711-28.355-4.751-28.302-4.805-28.236-4.858-28.285-4.871-28.34-4.894-28.396-4.922-28.397-4.922-28.397-4.922-28.398-4.923-28.442-4.945-28.487-4.969-28.532-4.997-28.784-5.14-29.233-5.43-29.29-5.711-29.31-5.889-29.187-5.955-29.187-5.955-28.979-6.046-28.907-5.841-28.907-5.841-28.907-5.841-28.845-5.655-28.723-5.453-28.698-5.406-28.662-5.366-28.633-5.322-28.509-5.157-28.344-5.007-28.134-4.967-28.039-4.97-27.943-4.995-27.863-5.057-27.276-5.53-25.004-6.275-23.17-5.122-23.003-5.051-22.951-5.077-22.771-5.101-21.071-5.332-19.568-5.309-18.28-5.099-18.132-5.302-17.962-5.492-17.765-5.662-17.69-5.725-17.619-5.791-17.552-5.861L-17.535-5.876C-18.694-6.682-19.598-7.837-19.961-9.199-21.312-14.259-15.108-19.388-10.382-15.34-10.382-15.34-10.114-15.062-10.016-14.94-9.975-14.886-9.922-14.834-9.869-14.767-9.856-14.817-9.833-14.871-9.805-14.927-9.805-14.928-9.805-14.929-9.804-14.93-9.782-14.974-9.758-15.018-9.73-15.064-9.587-15.316-9.297-15.764-9.016-15.822-8.838-15.842-8.772-15.718-8.772-15.718-8.681-15.51-8.886-15.439-8.886-15.439-8.886-15.439-9.072-15.377-9.274-15.254-9.321-15.229-9.361-15.194-9.405-15.164-9.57-15.04-9.72-14.876-9.76-14.665-9.757-14.57-9.732-14.475-9.67-14.394-9.197-13.807-8.452-11.535-9.605-9.702-9.676-9.534-9.65-9.483-9.626-9.302-9.395-7.603-9.418-6.099-9.627-4.811-9.425-4.663-9.235-4.493-9.065-4.296-9.002-4.222-8.936-4.15-8.866-4.083L-8.851-4.066C-8.045-5.225-6.89-6.129-5.528-6.493-.468-7.844 4.661-1.64 .613 3.087" fill="#bf9d73"/>
<path transform="matrix(1,0,0,-1,36.6264,15.569998)" d="M0 0C.087 .155 .208 .274 .362 .358 .516 .441 .674 .483 .837 .483 .999 .483 1.157 .441 1.312 .358 1.466 .274 1.587 .155 1.673 0 1.76-.155 1.803-.317 1.803-.485 1.803-.651 1.761-.811 1.676-.965 1.591-1.118 1.471-1.237 1.318-1.322 1.164-1.408 1.004-1.451 .837-1.451 .67-1.451 .51-1.408 .356-1.322 .203-1.237 .083-1.118-.002-.965-.088-.811-.131-.651-.131-.485-.131-.317-.087-.155 0 0M.26-1.49C.444-1.592 .636-1.643 .837-1.643 1.038-1.643 1.23-1.592 1.414-1.49 1.598-1.388 1.74-1.245 1.842-1.061 1.944-.876 1.995-.684 1.995-.485 1.995-.283 1.943-.089 1.84 .097 1.737 .283 1.592 .425 1.407 .525 1.222 .625 1.032 .675 .837 .675 .643 .675 .453 .625 .267 .525 .082 .425-.063 .283-.167 .097-.271-.089-.323-.283-.323-.485-.323-.684-.271-.876-.169-1.061-.067-1.245 .077-1.388 .26-1.49" fill="#bf9d73"/>
<path transform="matrix(1,0,0,-1,37.1563,15.616798)" d="M0 0H.229C.327 0 .394-.007 .431-.021 .467-.036 .496-.058 .516-.087 .537-.116 .547-.149 .547-.186 .547-.243 .526-.289 .483-.324 .441-.359 .361-.376 .244-.376H0ZM0-.548H.118C.189-.548 .243-.563 .28-.591 .333-.63 .403-.727 .49-.882L.601-1.078H.846L.694-.834C.622-.718 .56-.636 .51-.587 .483-.561 .448-.539 .404-.521 .511-.512 .598-.475 .663-.407 .728-.339 .76-.26 .76-.169 .76-.104 .741-.044 .702 .014 .663 .071 .611 .111 .545 .134 .48 .157 .374 .169 .227 .169H-.201V-1.078H0Z" fill="#bf9d73"/>
<path transform="matrix(1,0,0,-1,57.728,33.8603)" d="M0 0C.336 0 .609 .101 .816 .305 1.025 .509 1.129 .755 1.129 1.043 1.129 1.328 1.025 1.573 .816 1.778 .609 1.984 .336 2.087 0 2.087H-1.384V0ZM.015 2.641C.511 2.641 .919 2.486 1.235 2.176 1.553 1.866 1.711 1.489 1.711 1.043 1.711 .594 1.553 .215 1.235-.092 .919-.4 .511-.554 .015-.554H-1.384V-2.542H-1.945V2.641Z" fill="#bf9d73"/>
<path transform="matrix(1,0,0,-1,64.8351,34.279199)" d="M0 0C-.015 .369-.153 .681-.416 .937-.679 1.192-1.011 1.32-1.413 1.32-1.796 1.32-2.123 1.192-2.393 .934-2.663 .675-2.805 .365-2.819 0ZM-2.805 1.249C-2.421 1.638-1.958 1.832-1.413 1.832-.85 1.832-.381 1.639-.007 1.253 .366 .868 .553 .395 .553-.163 .553-.272 .546-.369 .532-.454H-2.812C-2.755-.8-2.587-1.088-2.307-1.317-2.029-1.546-1.702-1.661-1.328-1.661-.807-1.661-.401-1.467-.107-1.08L.341-1.356C.156-1.607-.086-1.806-.383-1.952-.682-2.099-.997-2.172-1.328-2.172-1.91-2.172-2.399-1.978-2.794-1.587-3.189-1.197-3.387-.722-3.387-.163-3.387 .386-3.193 .857-2.805 1.249" fill="#bf9d73"/>
<path transform="matrix(1,0,0,-1,67.667,32.504499)" d="M0 0 .505 .007 .533-.675C.647-.452 .815-.279 1.037-.156 1.259-.033 1.52 .029 1.818 .029 1.907 .029 1.996 .021 2.081 .007L1.967-.518C1.91-.509 1.863-.504 1.825-.504H1.804C1.43-.504 1.126-.627 .891-.873 .657-1.119 .54-1.5 .54-2.016V-3.897H0Z" fill="#bf9d73"/>
<path transform="matrix(1,0,0,-1,71.529,32.497098)" d="M0 0H.497V.17C.497 .719 .614 1.116 .849 1.359 1.083 1.603 1.394 1.725 1.782 1.725 1.957 1.725 2.111 1.701 2.244 1.654L2.101 1.171C1.973 1.195 1.879 1.206 1.818 1.206 1.567 1.206 1.374 1.13 1.239 .976 1.104 .822 1.037 .553 1.037 .17V0H2.087V-.497H1.037V-3.912L.497-3.905V-.497H0Z" fill="#bf9d73"/>
<path transform="matrix(1,0,0,-1,75.711,32.497098)" d="M0 0H.539V-1.981C.539-2.449 .651-2.806 .873-3.05 1.095-3.293 1.379-3.415 1.724-3.415 2.07-3.415 2.354-3.293 2.577-3.05 2.799-2.806 2.91-2.449 2.91-1.981V0H3.45V-3.905H2.946L2.924-3.152C2.811-3.384 2.641-3.576 2.417-3.728 2.192-3.879 1.926-3.954 1.618-3.954 1.141-3.954 .751-3.785 .45-3.447 .15-3.108 0-2.62 0-1.981Z" fill="#bf9d73"/>
<path transform="matrix(1,0,0,-1,81.6808,36.402)" d="M0 0V3.905H.505L.526 3.202C.62 3.438 .769 3.623 .973 3.756 1.177 3.888 1.395 3.954 1.626 3.954 1.943 3.954 2.206 3.87 2.414 3.702 2.622 3.535 2.767 3.318 2.848 3.053 2.928 3.313 3.071 3.529 3.276 3.699 3.483 3.869 3.733 3.954 4.026 3.954 4.457 3.954 4.802 3.803 5.063 3.5 5.322 3.197 5.453 2.726 5.453 2.087V0H4.913V2.087C4.913 2.551 4.824 2.89 4.647 3.102 4.47 3.315 4.239 3.422 3.955 3.422 3.685 3.422 3.458 3.314 3.273 3.099 3.088 2.883 2.996 2.547 2.996 2.087V0H2.457V2.087C2.457 2.551 2.368 2.89 2.19 3.102 2.013 3.315 1.782 3.422 1.498 3.422 1.219 3.422 .99 3.3 .81 3.056 .63 2.812 .54 2.454 .54 1.981V0Z" fill="#bf9d73"/>
<path transform="matrix(1,0,0,-1,92.7002,34.279199)" d="M0 0C-.015 .369-.153 .681-.416 .937-.679 1.192-1.011 1.32-1.413 1.32-1.796 1.32-2.123 1.192-2.393 .934-2.663 .675-2.805 .365-2.819 0ZM-2.805 1.249C-2.421 1.638-1.958 1.832-1.413 1.832-.85 1.832-.381 1.639-.007 1.253 .366 .868 .553 .395 .553-.163 .553-.272 .546-.369 .532-.454H-2.812C-2.755-.8-2.587-1.088-2.307-1.317-2.029-1.546-1.702-1.661-1.328-1.661-.807-1.661-.401-1.467-.107-1.08L.341-1.356C.156-1.607-.086-1.806-.383-1.952-.682-2.099-.997-2.172-1.328-2.172-1.91-2.172-2.399-1.978-2.794-1.587-3.189-1.197-3.387-.722-3.387-.163-3.387 .386-3.193 .857-2.805 1.249" fill="#bf9d73"/>
<path transform="matrix(1,0,0,-1,95.6954,35.4222)" d="M0 0C.133-.156 .322-.283 .568-.38 .815-.477 1.072-.525 1.343-.525 1.635-.525 1.876-.466 2.063-.348 2.25-.229 2.343-.071 2.343 .128 2.343 .299 2.255 .434 2.077 .536 1.899 .637 1.684 .715 1.431 .767 1.178 .819 .924 .879 .671 .948 .418 1.016 .203 1.132 .026 1.296-.153 1.459-.241 1.671-.241 1.931-.241 2.239-.107 2.49 .16 2.684 .427 2.877 .779 2.975 1.215 2.975 1.891 2.975 2.407 2.762 2.762 2.335L2.421 1.995C2.284 2.161 2.105 2.284 1.885 2.364 1.665 2.444 1.446 2.485 1.229 2.485 .959 2.485 .736 2.435 .562 2.335 .386 2.237 .299 2.099 .299 1.924 .299 1.772 .388 1.652 .565 1.562 .742 1.472 .959 1.399 1.215 1.345 1.47 1.291 1.724 1.228 1.978 1.157 2.231 1.086 2.446 .967 2.623 .798 2.801 .631 2.89 .412 2.89 .142 2.89-.242 2.74-.534 2.439-.735 2.138-.936 1.771-1.037 1.335-1.037 1.028-1.037 .717-.981 .405-.87 .092-.759-.167-.587-.376-.355Z" fill="#bf9d73"/>
<path transform="matrix(1,0,0,-1,104.8683,31.928898)" d="M0 0C.516 .515 1.141 .774 1.874 .774 2.286 .774 2.674 .684 3.039 .504 3.403 .324 3.711 .078 3.962-.235L3.493-.582C3.304-.341 3.067-.151 2.783-.011 2.5 .129 2.196 .199 1.874 .199 1.301 .199 .811-.004 .405-.408-.002-.813-.205-1.302-.205-1.875-.205-2.457-.002-2.952 .405-3.358 .811-3.766 1.301-3.969 1.874-3.969 2.206-3.969 2.516-3.897 2.805-3.752 3.093-3.608 3.333-3.408 3.521-3.153L4.011-3.465C3.765-3.801 3.455-4.066 3.081-4.26 2.707-4.454 2.305-4.551 1.874-4.551 1.141-4.551 .515-4.29-.003-3.766-.522-3.243-.781-2.615-.781-1.882-.781-1.148-.52-.521 0 0" fill="#bf9d73"/>
<path transform="matrix(1,0,0,-1,111.8253,35.4717)" d="M0 0C.284-.289 .627-.433 1.029-.433 1.432-.433 1.775-.29 2.059-.004 2.343 .283 2.485 .627 2.485 1.029 2.485 1.427 2.343 1.767 2.059 2.052 1.775 2.335 1.432 2.477 1.029 2.477 .627 2.477 .284 2.335 0 2.052-.284 1.767-.426 1.427-.426 1.029-.426 .627-.284 .284 0 0M-.383 2.442C.005 2.83 .476 3.024 1.029 3.024 1.578 3.024 2.049 2.829 2.442 2.439 2.835 2.048 3.032 1.578 3.032 1.029 3.032 .476 2.835 .002 2.442-.391 2.049-.783 1.578-.98 1.029-.98 .476-.98 .005-.783-.383-.391-.772 .002-.966 .476-.966 1.029-.966 1.578-.772 2.049-.383 2.442" fill="#bf9d73"/>
<path transform="matrix(1,0,0,-1,117.1214,36.402)" d="M0 0V3.905H.505L.526 3.202C.62 3.438 .769 3.623 .973 3.756 1.177 3.888 1.395 3.954 1.626 3.954 1.943 3.954 2.206 3.87 2.414 3.702 2.622 3.535 2.767 3.318 2.848 3.053 2.928 3.313 3.071 3.529 3.276 3.699 3.483 3.869 3.732 3.954 4.026 3.954 4.457 3.954 4.802 3.803 5.063 3.5 5.322 3.197 5.453 2.726 5.453 2.087V0H4.913V2.087C4.913 2.551 4.824 2.89 4.647 3.102 4.47 3.315 4.239 3.422 3.955 3.422 3.685 3.422 3.458 3.314 3.273 3.099 3.088 2.883 2.996 2.547 2.996 2.087V0H2.457V2.087C2.457 2.551 2.368 2.89 2.19 3.102 2.013 3.315 1.782 3.422 1.498 3.422 1.219 3.422 .99 3.3 .81 3.056 .63 2.812 .54 2.454 .54 1.981V0Z" fill="#bf9d73"/>
<path transform="matrix(1,0,0,-1,125.9818,35.4791)" d="M0 0C.284-.289 .629-.433 1.037-.433 1.438-.433 1.782-.289 2.066-.003 2.35 .283 2.492 .629 2.492 1.037 2.492 1.439 2.35 1.783 2.066 2.07 1.782 2.356 1.438 2.499 1.037 2.499 .629 2.499 .283 2.356-.003 2.07-.29 1.783-.433 1.439-.433 1.037-.433 .629-.289 .284 0 0M-.973-2.485V2.982H-.468L-.447 2.087C-.324 2.357-.119 2.582 .17 2.762 .459 2.942 .771 3.032 1.108 3.032 1.642 3.032 2.098 2.836 2.474 2.446 2.85 2.055 3.038 1.586 3.038 1.037 3.038 .483 2.849 .01 2.471-.383 2.092-.776 1.638-.972 1.108-.972 .771-.972 .46-.882 .174-.703-.113-.523-.315-.298-.433-.028V-2.485Z" fill="#bf9d73"/>
<path transform="matrix(1,0,0,-1,131.5905,34.449998)" d="M0 0C0-.402 .143-.746 .43-1.033 .716-1.319 1.061-1.462 1.463-1.462 1.87-1.462 2.217-1.32 2.503-1.036 2.789-.752 2.933-.407 2.933 0 2.933 .402 2.789 .748 2.503 1.037 2.217 1.325 1.87 1.47 1.463 1.47 1.061 1.47 .716 1.325 .43 1.037 .143 .748 0 .402 0 0M.029 1.413C.407 1.806 .862 2.002 1.392 2.002 1.728 2.002 2.04 1.912 2.329 1.729 2.618 1.547 2.824 1.319 2.947 1.044L2.968 1.953H3.472V-1.952H2.968L2.947-1.057C2.824-1.327 2.618-1.552 2.329-1.732 2.04-1.912 1.728-2.001 1.392-2.001 .857-2.001 .402-1.807 .026-1.416-.351-1.026-.539-.553-.539 0-.539 .549-.35 1.02 .029 1.413" fill="#bf9d73"/>
<path transform="matrix(1,0,0,-1,137.5892,36.402)" d="M0 0V3.905H.505L.526 3.152C.639 3.389 .808 3.582 1.033 3.731 1.258 3.88 1.522 3.954 1.825 3.954 2.307 3.954 2.699 3.786 3 3.45 3.3 3.114 3.45 2.624 3.45 1.981V0H2.911V1.981C2.911 2.449 2.8 2.806 2.577 3.053 2.355 3.299 2.071 3.422 1.725 3.422 1.38 3.422 1.096 3.3 .873 3.056 .652 2.812 .54 2.454 .54 1.981V0Z" fill="#bf9d73"/>
<path transform="matrix(1,0,0,-1,0,47.3127)" d="M143.474 14.816H144.01399V10.911H143.474ZM143.375 15.625C143.375 15.729 143.411 15.817 143.485 15.888 143.558 15.959 143.645 15.994 143.745 15.994 143.844 15.994 143.928 15.959 144 15.888 144.071 15.817 144.107 15.729 144.107 15.625 144.107 15.526 144.071 15.44 144 15.369 143.928 15.293 143.844 15.256 143.745 15.256 143.645 15.256 143.558 15.292 143.485 15.366 143.411 15.439 143.375 15.526 143.375 15.625" fill="#bf9d73"/>
<path transform="matrix(1,0,0,-1,149.6732,34.279199)" d="M0 0C-.015 .369-.153 .681-.416 .937-.679 1.192-1.011 1.32-1.413 1.32-1.796 1.32-2.123 1.192-2.393 .934-2.663 .675-2.805 .365-2.819 0ZM-2.805 1.249C-2.421 1.638-1.958 1.832-1.413 1.832-.85 1.832-.381 1.639-.007 1.253 .366 .868 .553 .395 .553-.163 .553-.272 .546-.369 .532-.454H-2.812C-2.755-.8-2.587-1.088-2.307-1.317-2.029-1.546-1.702-1.661-1.328-1.661-.807-1.661-.401-1.467-.107-1.08L.341-1.356C.156-1.607-.086-1.806-.383-1.952-.682-2.099-.997-2.172-1.328-2.172-1.91-2.172-2.399-1.978-2.794-1.587-3.189-1.197-3.387-.722-3.387-.163-3.387 .386-3.193 .857-2.805 1.249" fill="#bf9d73"/>
<path transform="matrix(1,0,0,-1,152.6685,35.4222)" d="M0 0C.133-.156 .322-.283 .568-.38 .815-.477 1.072-.525 1.343-.525 1.635-.525 1.876-.466 2.063-.348 2.25-.229 2.343-.071 2.343 .128 2.343 .299 2.255 .434 2.077 .536 1.899 .637 1.684 .715 1.431 .767 1.178 .819 .924 .879 .671 .948 .418 1.016 .203 1.132 .026 1.296-.153 1.459-.241 1.671-.241 1.931-.241 2.239-.107 2.49 .16 2.684 .427 2.877 .779 2.975 1.215 2.975 1.891 2.975 2.407 2.762 2.762 2.335L2.421 1.995C2.284 2.161 2.105 2.284 1.885 2.364 1.665 2.444 1.446 2.485 1.229 2.485 .959 2.485 .736 2.435 .562 2.335 .386 2.237 .299 2.099 .299 1.924 .299 1.772 .388 1.652 .565 1.562 .742 1.472 .959 1.399 1.215 1.345 1.47 1.291 1.724 1.228 1.978 1.157 2.231 1.086 2.446 .967 2.623 .798 2.801 .631 2.89 .412 2.89 .142 2.89-.242 2.74-.534 2.439-.735 2.138-.936 1.771-1.037 1.335-1.037 1.028-1.037 .717-.981 .405-.87 .092-.759-.167-.587-.376-.355Z" fill="#bf9d73"/>
<path transform="matrix(1,0,0,-1,0,47.3127)" d="M53.341 17.911H51.966V19.297999H53.341ZM50.979 17.911H49.604V19.297999H50.979ZM58.128 24.172V22.748C56.591 22.748 56.153 22.985 55.578 23.847 55.178 21.898 53.504 20.673 51.467 20.673 49.067 20.673 47.168 22.547 47.168 25.009V26.409H48.567V25.172C48.567 23.235 49.692 22.023 51.504 22.023 53.129 22.023 54.353 23.098 54.353 24.372 54.353 25.147 53.891 25.697 53.091 25.697 53.016 25.697 52.941 25.697 52.866 25.685V26.959H53.416C54.516 26.959 55.341 26.459 55.89 25.472 56.403 24.535 56.89 24.172 57.603 24.172Z" fill="#bf9d73"/>
<path transform="matrix(1,0,0,-1,63.2526,22.765198)" d="M0 0C0 .437-.112 .825-.337 1.137-.6 1.475-.962 1.649-1.399 1.649-1.824 1.649-2.162 1.487-2.412 1.149-2.625 .862-2.737 .487-2.737 .05-2.737-.85-2.187-1.587-1.324-1.587-.899-1.587-.562-1.425-.325-1.112-.112-.825 0-.45 0 0M2.687-1.8H.899C.362-2.524-.388-2.887-1.362-2.887-2.324-2.887-3.062-2.524-3.599-1.8H-5.511V-.375H-4.162C-4.174-.238-4.174-.1-4.174 .037-4.174 .875-3.912 1.562-3.399 2.099-2.874 2.637-2.199 2.912-1.362 2.912-.524 2.912 .15 2.637 .662 2.074 1.175 1.512 1.437 .825 1.437-.013V-.375H2.687Z" fill="#bf9d73"/>
<path transform="matrix(1,0,0,-1,69.0778,22.303299)" d="M0 0C0-1.512-.7-2.262-2.1-2.262H-3.574V-.837H-2.388C-1.925-.837-1.638-.7-1.5-.425-1.437-.275-1.4 .025-1.4 .475V5.799H0Z" fill="#bf9d73"/>
<path transform="matrix(1,0,0,-1,74.0524,24.564999)" d="M0 0H-1.638C-2.313 0-2.824 .212-3.188 .65-3.524 1.05-3.687 1.587-3.687 2.274V8.061H-2.3V2.837C-2.3 2.225-2.162 1.825-1.899 1.637-1.713 1.5-1.35 1.425-.825 1.425H0Z" fill="#bf9d73"/>
<path transform="matrix(1,0,0,-1,0,47.3127)" d="M77.127 20.011H75.764V21.41H77.127ZM77.14 25.009C77.14 23.498 76.439 22.748 75.052 22.748H73.703V24.172H74.764C75.227 24.172 75.514 24.31 75.652 24.585 75.715 24.734 75.752 25.035 75.752 25.484V28.421H77.14Z" fill="#bf9d73"/>
<path transform="matrix(1,0,0,-1,84.2258,18.8912)" d="M0 0V-4.562C0-6.811-.986-7.749-3.137-7.749V-6.549C-1.974-6.549-1.399-5.974-1.399-4.774V0Z" fill="#bf9d73"/>
<path transform="matrix(1,0,0,-1,89.3996,23.140198)" d="M0 0V1.712C-.074 2.449-.499 2.974-1.225 2.974-2.049 2.974-2.574 2.399-2.574 1.562-2.574 .7-1.986 0-1.236 0ZM3.112-1.425H1.412C1.226-2.799 .312-3.487-1.312-3.487V-2.387C-.587-2.387-.125-2.087 .075-1.425H-1.262C-2.774-1.425-3.999-.163-3.999 1.487-3.999 3.137-2.786 4.261-1.199 4.261 .325 4.261 1.4 3.086 1.4 1.45V0H3.112Z" fill="#bf9d73"/>
<path transform="matrix(1,0,0,-1,101.3479,23.140198)" d="M0 0C.013 .137 .013 .262 .013 .4 .013 2-.712 3.024-1.912 3.024-3.312 3.024-4.773 1.75-5.586 0ZM2.862-1.425H-9.098V0H-6.673V6.636H-5.299L-5.474 2.112C-4.312 3.599-3.111 4.274-1.787 4.274 .325 4.274 1.412 2.836 1.45 0H2.862Z" fill="#bf9d73"/>
<path transform="matrix(1,0,0,-1,110.51,20.428299)" d="M0 0C-.562 .337-1.175 .5-1.812 .5-2.449 .5-3.099 .325-3.736-.013-2.949-.288-2.236-.788-1.611-1.512-1.324-1.375-1.024-1.138-.699-.825-.412-.538-.175-.263 0 0M2.787-4.137H.125C-.225-4.137-.6-4.037-.987-3.837-1.312-3.674-1.574-3.475-1.787-3.237-2.699-3.837-3.611-4.137-4.549-4.137H-6.648V-2.712H-4.573C-4.161-2.712-3.836-2.687-3.599-2.625-3.299-2.562-2.999-2.437-2.699-2.237-2.887-1.95-3.249-1.637-3.761-1.312-4.273-.975-4.773-.75-5.236-.638V.687C-4.148 1.375-3.012 1.712-1.85 1.712-.475 1.712 .713 1.274 1.713 .412 1.6 .075 1.3-.388 .825-.975 .312-1.6-.162-2.062-.612-2.375-.437-2.55-.274-2.649-.112-2.687-.05-2.7 .138-2.712 .437-2.712H2.787Z" fill="#bf9d73"/>
<path transform="matrix(1,0,0,-1,116.4729,22.303299)" d="M0 0C0-1.512-.7-2.262-2.1-2.262H-3.574V-.837H-2.388C-1.925-.837-1.638-.7-1.5-.425-1.437-.275-1.4 .025-1.4 .475V5.799H0Z" fill="#bf9d73"/>
<path transform="matrix(1,0,0,-1,0,47.3127)" d="M119.148 22.748H117.761V30.821H119.148Z" fill="#bf9d73"/>
<path transform="matrix(1,0,0,-1,0,47.3127)" d="M130.021 28.434H128.659V29.821H130.021ZM127.646 28.434H126.284008V29.821H127.646ZM133.395 28.421V24.747C133.395 23.498 132.695 22.748 131.457 22.748H126.921C124.272 22.748 122.947 23.922 122.947 26.284V28.421H124.334V26.284C124.334 25.472 124.571 24.897 125.046 24.572 125.421 24.31 125.996 24.172 126.759 24.172H130.183C130.821 24.172 131.257 24.247 131.495 24.41 131.845 24.635 132.02 25.072 132.02 25.71V28.421Z" fill="#bf9d73"/>
<path transform="matrix(1,0,0,-1,138.383,24.564999)" d="M0 0H-1.638C-2.313 0-2.824 .212-3.188 .65-3.524 1.05-3.687 1.587-3.687 2.274V8.061H-2.3V2.837C-2.3 2.225-2.162 1.825-1.899 1.637-1.713 1.5-1.35 1.425-.825 1.425H0Z" fill="#bf9d73"/>
<path transform="matrix(1,0,0,-1,146.2814,23.689999)" d="M0 0V-.875H-8.361V.55H-1.5C-1.5 1.324-1.725 1.987-2.175 2.537-2.7 3.174-3.425 3.486-4.337 3.486H-7.224L-4.762 7.186H-3.1L-4.787 4.799H-4.175C-3.25 4.799-2.45 4.574-1.775 4.111-.588 3.324 0 1.962 0 0" fill="#bf9d73"/>
<path transform="matrix(1,0,0,-1,152.4934,24.564999)" d="M0 0H-2.237C-2.45-1.337-3.587-2.075-5.287-2.075V-.875C-4.124-.875-3.55-.3-3.55 .9V5.674H-2.15V1.425H0Z" fill="#bf9d73"/>
<path transform="matrix(1,0,0,-1,0,47.3127)" d="M158.88 30.958H160.242V29.571002H158.88ZM157.705 32.933H159.079V31.532999H157.705ZM156.518 30.958H157.88V29.571002H156.518ZM152.057 24.172H153.081C153.793 24.172 154.144 24.66 154.144 25.647V28.421H155.556V25.697C155.556 24.96 155.481 24.485 155.33 24.247V24.172H156.63C157.343 24.172 157.693 24.635 157.693 25.56V28.421H159.105V25.697C159.105 24.885 159.005 24.372 158.818 24.172H160.18C160.892 24.172 161.241 24.635 161.241 25.547V28.421H162.654V25.722C162.654 23.922 161.654 22.748 160.23 22.748H152.057Z" fill="#bf9d73"/>
</g>
</g>
</svg>
